<svg width="323" height="97" viewBox="0 0 323 97" fill="none" xmlns="http://www.w3.org/2000/svg">
<path d="M65.3169 46.2918C65.3169 38.1968 61.9191 32.6033 55.4257 32.6033C47.4314 32.6033 42.0359 39.2982 41.7372 50.0892V75.6702H33.1418V46.2918C33.1418 38.1968 29.8447 32.6033 23.3478 32.6033C15.2563 32.6033 9.55847 39.5969 9.55847 50.8883V75.6702H0.966675V25.7104H9.56206V33.4024C12.4596 28.1076 17.8551 24.7098 24.6508 24.7098C32.1448 24.7098 37.5403 28.7051 40.0383 35.4036C42.7342 28.9067 48.8316 24.7098 56.4264 24.7098C67.3182 24.7098 73.9123 32.7041 73.9123 44.9961V75.6738H65.3169V46.2918ZM80.2185 50.6867C80.2185 36.2963 91.2111 24.7062 106.397 24.7062C121.583 24.7062 132.478 36.2963 132.478 50.6867C132.478 65.0772 121.389 76.6673 106.397 76.6673C91.4054 76.6673 80.2185 65.0772 80.2185 50.6867ZM123.685 50.6867C123.685 40.6948 116.788 32.7005 106.397 32.7005C96.0055 32.7005 89.0118 40.6948 89.0118 50.6867C89.0118 60.6787 96.0055 68.673 106.397 68.673C116.788 68.673 123.685 60.6787 123.685 50.6867ZM138.788 0.726929H147.383V75.6702H138.788V0.726929ZM258.011 25.6996H266.607V35.3928C268.504 28.9967 274.9 25.1993 280.594 25.1993C281.893 25.1993 283.193 25.3001 284.492 25.5988V34.493C282.894 33.7947 281.494 33.6939 279.795 33.6939C273.5 33.6939 266.607 39.1902 266.607 50.8811V75.6702H258.011V25.6996ZM299.584 60.8839V33.6075H288.991V25.714H299.584V11.8239H308.176V25.714H322.567V33.6075H308.176V59.786C308.176 66.1822 310.973 68.2806 316.469 68.2806C318.568 68.2806 320.965 67.9819 322.563 67.28V74.9755C320.465 75.6738 317.967 76.1741 314.871 76.1741C306.078 76.1741 299.584 71.2789 299.584 60.8839ZM251.374 48.869C250.539 36.2855 240.443 25.9516 227.891 24.8322C219.984 24.1267 212.313 26.9954 206.849 32.7041C206.273 33.3052 205.499 33.6363 204.668 33.6363C203.837 33.6363 203.063 33.3052 202.487 32.7041C197.023 26.9954 189.353 24.1267 181.448 24.8322C175.747 25.3397 170.553 27.7549 166.503 31.4155V25.7104H157.908V50.1828C157.908 50.262 157.908 50.3412 157.908 50.4204V96.5576H166.503V69.8968C171.233 74.1369 177.421 76.5377 183.809 76.5377C190.713 76.5377 197.206 73.8489 202.091 68.9645C203.513 67.5428 205.827 67.5428 207.245 68.9645C212.13 73.8489 218.623 76.5377 225.527 76.5377C232.43 76.5377 239.564 73.5466 244.445 68.3274C249.394 63.0363 251.856 56.1254 251.374 48.869ZM238.164 62.4496C234.856 65.9842 230.368 67.9351 225.527 67.9351C220.685 67.9351 216.589 66.139 213.328 62.8815C210.942 60.4951 207.803 59.3001 204.668 59.3001C201.533 59.3001 198.394 60.4951 196.008 62.8815C192.747 66.139 188.417 67.9351 183.809 67.9351C178.968 67.9351 174.48 65.9878 171.172 62.4496C167.868 58.915 166.223 54.2969 166.547 49.4377C167.105 41.0403 173.839 34.1438 182.211 33.3988C187.499 32.9272 192.628 34.8421 196.274 38.6539C198.488 40.9647 201.468 42.2389 204.668 42.2389C207.868 42.2389 210.848 40.9647 213.062 38.6539C216.712 34.8421 221.837 32.9272 227.125 33.3988C235.497 34.1438 242.231 41.0403 242.789 49.4377C243.113 54.2933 241.468 58.915 238.164 62.446V62.4496Z" fill="#201232"/>
</svg>
