<svg width="323" height="97" viewBox="0 0 323 97" fill="none" xmlns="http://www.w3.org/2000/svg">
<path d="M64.9837 46.2918C64.9837 38.1968 61.5858 32.6033 55.0925 32.6033C47.0982 32.6033 41.7027 39.2982 41.4039 50.0892V75.6702H32.8085V46.2918C32.8085 38.1968 29.5115 32.6033 23.0145 32.6033C14.9231 32.6033 9.22521 39.5969 9.22521 50.8883V75.6702H0.633423V25.7104H9.22881V33.4024C12.1263 28.1076 17.5219 24.7098 24.3175 24.7098C31.8115 24.7098 37.207 28.7051 39.705 35.4036C42.401 28.9067 48.4984 24.7098 56.0931 24.7098C66.9849 24.7098 73.579 32.7041 73.579 44.9961V75.6738H64.9837V46.2918ZM79.8852 50.6867C79.8852 36.2963 90.8778 24.7062 106.064 24.7062C121.25 24.7062 132.145 36.2963 132.145 50.6867C132.145 65.0772 121.055 76.6673 106.064 76.6673C91.0722 76.6673 79.8852 65.0772 79.8852 50.6867ZM123.352 50.6867C123.352 40.6948 116.455 32.7005 106.064 32.7005C95.6722 32.7005 88.6786 40.6948 88.6786 50.6867C88.6786 60.6787 95.6722 68.673 106.064 68.673C116.455 68.673 123.352 60.6787 123.352 50.6867ZM138.455 0.726929H147.05V75.6702H138.455V0.726929ZM257.678 25.6996H266.273V35.3928C268.17 28.9967 274.566 25.1993 280.261 25.1993C281.56 25.1993 282.859 25.3001 284.159 25.5988V34.493C282.561 33.7947 281.161 33.6939 279.462 33.6939C273.166 33.6939 266.273 39.1902 266.273 50.8811V75.6702H257.678V25.6996ZM299.251 60.8839V33.6075H288.658V25.714H299.251V11.8239H307.843V25.714H322.233V33.6075H307.843V59.786C307.843 66.1822 310.64 68.2806 316.136 68.2806C318.234 68.2806 320.632 67.9819 322.23 67.28V74.9755C320.131 75.6738 317.633 76.1741 314.538 76.1741C305.745 76.1741 299.251 71.2789 299.251 60.8839ZM251.041 48.869C250.206 36.2855 240.109 25.9516 227.558 24.8322C219.65 24.1267 211.98 26.9954 206.516 32.7041C205.94 33.3052 205.166 33.6363 204.335 33.6363C203.503 33.6363 202.729 33.3052 202.154 32.7041C196.69 26.9954 189.019 24.1267 181.115 24.8322C175.414 25.3397 170.22 27.7549 166.17 31.4155V25.7104H157.575V50.1828C157.575 50.262 157.575 50.3412 157.575 50.4204V96.5576H166.17V69.8968C170.9 74.1369 177.087 76.5377 183.476 76.5377C190.38 76.5377 196.873 73.8489 201.758 68.9645C203.179 67.5428 205.494 67.5428 206.912 68.9645C211.796 73.8489 218.29 76.5377 225.193 76.5377C232.097 76.5377 239.231 73.5466 244.112 68.3274C249.061 63.0363 251.523 56.1254 251.041 48.869ZM237.831 62.4496C234.523 65.9842 230.035 67.9351 225.193 67.9351C220.352 67.9351 216.256 66.139 212.995 62.8815C210.609 60.4951 207.47 59.3001 204.335 59.3001C201.2 59.3001 198.061 60.4951 195.675 62.8815C192.414 66.139 188.083 67.9351 183.476 67.9351C178.635 67.9351 174.147 65.9878 170.839 62.4496C167.534 58.915 165.889 54.2969 166.213 49.4377C166.771 41.0403 173.506 34.1438 181.878 33.3988C187.166 32.9272 192.295 34.8421 195.941 38.6539C198.155 40.9647 201.135 42.2389 204.335 42.2389C207.535 42.2389 210.515 40.9647 212.729 38.6539C216.378 34.8421 221.504 32.9272 226.792 33.3988C235.164 34.1438 241.898 41.0403 242.456 49.4377C242.78 54.2933 241.135 58.915 237.831 62.446V62.4496Z" fill="white"/>
</svg>
